<mxfile host="app.diagrams.net" modified="2021-12-22T13:53:04.384Z" agent="5.0 (Macintosh; Intel Mac OS X 10_12_6) AppleWebKit/537.36 (KHTML, like Gecko) Chrome/96.0.4664.110 Safari/537.36" etag="JKfHQ79MWj2mA3fHa_yK" version="16.0.3" type="github">
  <diagram id="C3M4Rlb7W5YD8JdpSRbe" name="Page-1">
    <mxGraphModel dx="1426" dy="826" grid="1" gridSize="10" guides="1" tooltips="1" connect="1" arrows="1" fold="1" page="1" pageScale="1" pageWidth="850" pageHeight="1100" math="0" shadow="0">
      <root>
        <mxCell id="0" />
        <mxCell id="1" parent="0" />
        <mxCell id="rLyhfRC4-sUaftHw-0YD-2" style="edgeStyle=orthogonalEdgeStyle;rounded=0;orthogonalLoop=1;jettySize=auto;html=1;" edge="1" parent="1" source="rLyhfRC4-sUaftHw-0YD-1">
          <mxGeometry relative="1" as="geometry">
            <mxPoint x="425" y="310" as="targetPoint" />
          </mxGeometry>
        </mxCell>
        <mxCell id="rLyhfRC4-sUaftHw-0YD-1" value="Start" style="ellipse;whiteSpace=wrap;html=1;" vertex="1" parent="1">
          <mxGeometry x="365" y="100" width="120" height="80" as="geometry" />
        </mxCell>
        <mxCell id="rLyhfRC4-sUaftHw-0YD-4" style="edgeStyle=orthogonalEdgeStyle;rounded=0;orthogonalLoop=1;jettySize=auto;html=1;" edge="1" parent="1">
          <mxGeometry relative="1" as="geometry">
            <mxPoint x="425" y="460" as="targetPoint" />
            <mxPoint x="425" y="370" as="sourcePoint" />
          </mxGeometry>
        </mxCell>
        <mxCell id="rLyhfRC4-sUaftHw-0YD-5" value="Declare length, counter=0" style="rounded=0;whiteSpace=wrap;html=1;" vertex="1" parent="1">
          <mxGeometry x="360" y="310" width="120" height="60" as="geometry" />
        </mxCell>
        <mxCell id="rLyhfRC4-sUaftHw-0YD-7" style="edgeStyle=orthogonalEdgeStyle;rounded=0;orthogonalLoop=1;jettySize=auto;html=1;" edge="1" parent="1" source="rLyhfRC4-sUaftHw-0YD-6" target="rLyhfRC4-sUaftHw-0YD-8">
          <mxGeometry relative="1" as="geometry">
            <mxPoint x="430" y="610" as="targetPoint" />
          </mxGeometry>
        </mxCell>
        <mxCell id="rLyhfRC4-sUaftHw-0YD-6" value="Input side" style="shape=parallelogram;perimeter=parallelogramPerimeter;whiteSpace=wrap;html=1;fixedSize=1;" vertex="1" parent="1">
          <mxGeometry x="365" y="460" width="120" height="60" as="geometry" />
        </mxCell>
        <mxCell id="rLyhfRC4-sUaftHw-0YD-9" style="edgeStyle=orthogonalEdgeStyle;rounded=0;orthogonalLoop=1;jettySize=auto;html=1;" edge="1" parent="1" source="rLyhfRC4-sUaftHw-0YD-8" target="rLyhfRC4-sUaftHw-0YD-11">
          <mxGeometry relative="1" as="geometry">
            <mxPoint x="630" y="730" as="targetPoint" />
            <Array as="points">
              <mxPoint x="420" y="700" />
              <mxPoint x="420" y="700" />
            </Array>
          </mxGeometry>
        </mxCell>
        <mxCell id="rLyhfRC4-sUaftHw-0YD-23" style="edgeStyle=orthogonalEdgeStyle;rounded=0;orthogonalLoop=1;jettySize=auto;html=1;" edge="1" parent="1" source="rLyhfRC4-sUaftHw-0YD-8" target="rLyhfRC4-sUaftHw-0YD-24">
          <mxGeometry relative="1" as="geometry">
            <mxPoint x="640" y="620" as="targetPoint" />
          </mxGeometry>
        </mxCell>
        <mxCell id="rLyhfRC4-sUaftHw-0YD-8" value="counter&amp;lt;36" style="rhombus;whiteSpace=wrap;html=1;" vertex="1" parent="1">
          <mxGeometry x="385" y="580" width="80" height="80" as="geometry" />
        </mxCell>
        <mxCell id="rLyhfRC4-sUaftHw-0YD-12" style="edgeStyle=orthogonalEdgeStyle;rounded=0;orthogonalLoop=1;jettySize=auto;html=1;" edge="1" parent="1" source="rLyhfRC4-sUaftHw-0YD-11" target="rLyhfRC4-sUaftHw-0YD-13">
          <mxGeometry relative="1" as="geometry">
            <mxPoint x="630" y="840" as="targetPoint" />
          </mxGeometry>
        </mxCell>
        <mxCell id="rLyhfRC4-sUaftHw-0YD-18" style="edgeStyle=orthogonalEdgeStyle;rounded=0;orthogonalLoop=1;jettySize=auto;html=1;exitX=0.5;exitY=0;exitDx=0;exitDy=0;" edge="1" parent="1" source="rLyhfRC4-sUaftHw-0YD-11">
          <mxGeometry relative="1" as="geometry">
            <mxPoint x="420" y="740" as="targetPoint" />
          </mxGeometry>
        </mxCell>
        <mxCell id="rLyhfRC4-sUaftHw-0YD-11" value="randomColor_h()" style="rounded=1;whiteSpace=wrap;html=1;" vertex="1" parent="1">
          <mxGeometry x="365" y="700" width="120" height="60" as="geometry" />
        </mxCell>
        <mxCell id="rLyhfRC4-sUaftHw-0YD-14" style="edgeStyle=orthogonalEdgeStyle;rounded=0;orthogonalLoop=1;jettySize=auto;html=1;" edge="1" parent="1" source="rLyhfRC4-sUaftHw-0YD-13" target="rLyhfRC4-sUaftHw-0YD-15">
          <mxGeometry relative="1" as="geometry">
            <mxPoint x="630" y="950" as="targetPoint" />
          </mxGeometry>
        </mxCell>
        <mxCell id="rLyhfRC4-sUaftHw-0YD-13" value="forward(length)" style="rounded=1;whiteSpace=wrap;html=1;" vertex="1" parent="1">
          <mxGeometry x="365" y="790" width="120" height="60" as="geometry" />
        </mxCell>
        <mxCell id="rLyhfRC4-sUaftHw-0YD-16" style="edgeStyle=orthogonalEdgeStyle;rounded=0;orthogonalLoop=1;jettySize=auto;html=1;" edge="1" parent="1" source="rLyhfRC4-sUaftHw-0YD-15" target="rLyhfRC4-sUaftHw-0YD-17">
          <mxGeometry relative="1" as="geometry">
            <mxPoint x="420" y="1030" as="targetPoint" />
          </mxGeometry>
        </mxCell>
        <mxCell id="rLyhfRC4-sUaftHw-0YD-15" value="goto(0,0)" style="rounded=1;whiteSpace=wrap;html=1;" vertex="1" parent="1">
          <mxGeometry x="365" y="880" width="120" height="60" as="geometry" />
        </mxCell>
        <mxCell id="rLyhfRC4-sUaftHw-0YD-19" style="edgeStyle=orthogonalEdgeStyle;rounded=0;orthogonalLoop=1;jettySize=auto;html=1;" edge="1" parent="1" source="rLyhfRC4-sUaftHw-0YD-17" target="rLyhfRC4-sUaftHw-0YD-20">
          <mxGeometry relative="1" as="geometry">
            <mxPoint x="425" y="1060" as="targetPoint" />
          </mxGeometry>
        </mxCell>
        <mxCell id="rLyhfRC4-sUaftHw-0YD-17" value="left(10)" style="rounded=1;whiteSpace=wrap;html=1;" vertex="1" parent="1">
          <mxGeometry x="365" y="960" width="120" height="60" as="geometry" />
        </mxCell>
        <mxCell id="rLyhfRC4-sUaftHw-0YD-22" style="edgeStyle=orthogonalEdgeStyle;rounded=0;orthogonalLoop=1;jettySize=auto;html=1;entryX=0;entryY=0.5;entryDx=0;entryDy=0;" edge="1" parent="1" source="rLyhfRC4-sUaftHw-0YD-20" target="rLyhfRC4-sUaftHw-0YD-8">
          <mxGeometry relative="1" as="geometry">
            <mxPoint x="140" y="620" as="targetPoint" />
            <Array as="points">
              <mxPoint x="140" y="1060" />
              <mxPoint x="140" y="620" />
            </Array>
          </mxGeometry>
        </mxCell>
        <mxCell id="rLyhfRC4-sUaftHw-0YD-20" value="counter++" style="rounded=1;whiteSpace=wrap;html=1;" vertex="1" parent="1">
          <mxGeometry x="365" y="1030" width="120" height="60" as="geometry" />
        </mxCell>
        <mxCell id="rLyhfRC4-sUaftHw-0YD-24" value="End" style="ellipse;whiteSpace=wrap;html=1;" vertex="1" parent="1">
          <mxGeometry x="580" y="580" width="120" height="80" as="geometry" />
        </mxCell>
        <mxCell id="rLyhfRC4-sUaftHw-0YD-25" value="True" style="text;html=1;strokeColor=none;fillColor=none;align=center;verticalAlign=middle;whiteSpace=wrap;rounded=0;" vertex="1" parent="1">
          <mxGeometry x="410" y="650" width="60" height="30" as="geometry" />
        </mxCell>
        <mxCell id="rLyhfRC4-sUaftHw-0YD-26" value="False" style="text;html=1;strokeColor=none;fillColor=none;align=center;verticalAlign=middle;whiteSpace=wrap;rounded=0;" vertex="1" parent="1">
          <mxGeometry x="485" y="590" width="60" height="30" as="geometry" />
        </mxCell>
      </root>
    </mxGraphModel>
  </diagram>
</mxfile>
